<svg width="24" height="24" viewBox="0 0 24 24" fill="none" xmlns="http://www.w3.org/2000/svg">
<circle cx="12" cy="12" r="12" fill="#BEF69F"/>
<path d="M6.792 15C6.73867 15 6.69067 14.9813 6.648 14.944C6.61067 14.9067 6.592 14.8587 6.592 14.8V9.6C6.592 9.54133 6.61067 9.49333 6.648 9.456C6.69067 9.41867 6.73867 9.4 6.792 9.4H7.536C7.616 9.4 7.67467 9.42133 7.712 9.464C7.75467 9.50667 7.784 9.53867 7.8 9.56L9.272 12.272L10.76 9.56C10.7707 9.53867 10.7947 9.50667 10.832 9.464C10.8747 9.42133 10.936 9.4 11.016 9.4H11.76C11.8187 9.4 11.8667 9.41867 11.904 9.456C11.9413 9.49333 11.96 9.54133 11.96 9.6V14.8C11.96 14.8587 11.9413 14.9067 11.904 14.944C11.8667 14.9813 11.8187 15 11.76 15H10.944C10.8907 15 10.8453 14.9813 10.808 14.944C10.7707 14.9067 10.752 14.8587 10.752 14.8V11.568L9.736 13.472C9.70933 13.52 9.67467 13.5627 9.632 13.6C9.58933 13.6373 9.53333 13.656 9.464 13.656H9.088C9.01867 13.656 8.96267 13.6373 8.92 13.6C8.87733 13.5627 8.84267 13.52 8.816 13.472L7.8 11.568V14.8C7.8 14.8587 7.78133 14.9067 7.744 14.944C7.70667 14.9813 7.66133 15 7.608 15H6.792ZM13.3467 15C13.288 15 13.24 14.9813 13.2027 14.944C13.1654 14.9067 13.1467 14.8587 13.1467 14.8V9.6C13.1467 9.54133 13.1654 9.49333 13.2027 9.456C13.24 9.41867 13.288 9.4 13.3467 9.4H15.5307C15.9627 9.4 16.336 9.46667 16.6507 9.6C16.9707 9.73333 17.2187 9.936 17.3947 10.208C17.576 10.4747 17.6667 10.808 17.6667 11.208C17.6667 11.6133 17.576 11.9493 17.3947 12.216C17.2187 12.4773 16.9707 12.672 16.6507 12.8C16.336 12.928 15.9627 12.992 15.5307 12.992H14.4587V14.8C14.4587 14.8587 14.44 14.9067 14.4027 14.944C14.3654 14.9813 14.3174 15 14.2587 15H13.3467ZM14.4347 12H15.4907C15.7627 12 15.9734 11.9333 16.1227 11.8C16.2774 11.6667 16.3547 11.4667 16.3547 11.2C16.3547 10.9653 16.2854 10.7733 16.1467 10.624C16.0134 10.4747 15.7947 10.4 15.4907 10.4H14.4347V12Z" fill="#2C44DA"/>
</svg>
