<svg width="30" height="30" viewBox="0 0 30 30" fill="none" xmlns="http://www.w3.org/2000/svg">
<ellipse cx="14.7815" cy="15.0432" rx="14.4124" ry="14.426" fill="#2C44DA"/>
<path d="M6.06092 18.2344C5.99492 18.2344 5.94092 18.2134 5.89892 18.1714C5.85692 18.1294 5.83592 18.0754 5.83592 18.0094V12.1594C5.83592 12.0934 5.85692 12.0394 5.89892 11.9974C5.94092 11.9554 5.99492 11.9344 6.06092 11.9344H6.87992C6.96992 11.9344 7.03592 11.9554 7.07792 11.9974C7.11992 12.0394 7.14692 12.0724 7.15892 12.0964L9.56192 15.8494V12.1594C9.56192 12.0934 9.58292 12.0394 9.62492 11.9974C9.66692 11.9554 9.71792 11.9344 9.77792 11.9344H10.6959C10.7619 11.9344 10.8159 11.9554 10.8579 11.9974C10.8999 12.0394 10.9209 12.0934 10.9209 12.1594V18.0094C10.9209 18.0694 10.8999 18.1234 10.8579 18.1714C10.8159 18.2134 10.7619 18.2344 10.6959 18.2344H9.86792C9.77792 18.2344 9.71192 18.2134 9.66992 18.1714C9.63392 18.1234 9.60692 18.0904 9.58892 18.0724L7.19492 14.4364V18.0094C7.19492 18.0754 7.17392 18.1294 7.13192 18.1714C7.08992 18.2134 7.03592 18.2344 6.96992 18.2344H6.06092ZM12.4769 18.2344C12.4109 18.2344 12.3569 18.2134 12.3149 18.1714C12.2729 18.1294 12.2519 18.0754 12.2519 18.0094V12.1594C12.2519 12.0934 12.2729 12.0394 12.3149 11.9974C12.3569 11.9554 12.4109 11.9344 12.4769 11.9344H16.4909C16.5569 11.9344 16.6109 11.9554 16.6529 11.9974C16.6949 12.0394 16.7159 12.0934 16.7159 12.1594V12.9244C16.7159 12.9904 16.6949 13.0444 16.6529 13.0864C16.6109 13.1284 16.5569 13.1494 16.4909 13.1494H13.6559V14.6704H16.3109C16.3769 14.6704 16.4309 14.6914 16.4729 14.7334C16.5149 14.7754 16.5359 14.8294 16.5359 14.8954V15.6604C16.5359 15.7204 16.5149 15.7714 16.4729 15.8134C16.4309 15.8554 16.3769 15.8764 16.3109 15.8764H13.6559V18.0094C13.6559 18.0754 13.6349 18.1294 13.5929 18.1714C13.5509 18.2134 13.4969 18.2344 13.4309 18.2344H12.4769ZM19.3473 18.2344C19.2813 18.2344 19.2273 18.2134 19.1853 18.1714C19.1433 18.1294 19.1223 18.0754 19.1223 18.0094V13.1854H17.4843C17.4243 13.1854 17.3733 13.1644 17.3313 13.1224C17.2893 13.0804 17.2683 13.0294 17.2683 12.9694V12.1594C17.2683 12.0934 17.2893 12.0394 17.3313 11.9974C17.3733 11.9554 17.4243 11.9344 17.4843 11.9344H22.2003C22.2663 11.9344 22.3203 11.9554 22.3623 11.9974C22.4043 12.0394 22.4253 12.0934 22.4253 12.1594V12.9694C22.4253 13.0294 22.4043 13.0804 22.3623 13.1224C22.3203 13.1644 22.2663 13.1854 22.2003 13.1854H20.5713V18.0094C20.5713 18.0754 20.5503 18.1294 20.5083 18.1714C20.4663 18.2134 20.4123 18.2344 20.3463 18.2344H19.3473Z" fill="white"/>
</svg>
