<svg width="24" height="24" viewBox="0 0 24 24" fill="none" xmlns="http://www.w3.org/2000/svg">
<circle cx="12" cy="12" r="12" fill="#C4C5CA"/>
<path d="M8.816 15.08C8.33067 15.08 7.912 15 7.56 14.84C7.208 14.68 6.93333 14.44 6.736 14.12C6.53867 13.7947 6.432 13.3867 6.416 12.896C6.41067 12.6667 6.408 12.44 6.408 12.216C6.408 11.9867 6.41067 11.7547 6.416 11.52C6.432 11.04 6.53867 10.6373 6.736 10.312C6.93867 9.98133 7.216 9.73333 7.568 9.568C7.92533 9.40267 8.34133 9.32 8.816 9.32C9.28533 9.32 9.696 9.40267 10.048 9.568C10.4053 9.73333 10.6853 9.98133 10.888 10.312C11.0907 10.6373 11.1973 11.04 11.208 11.52C11.2187 11.7547 11.224 11.9867 11.224 12.216C11.224 12.44 11.2187 12.6667 11.208 12.896C11.192 13.3867 11.0853 13.7947 10.888 14.12C10.6907 14.44 10.416 14.68 10.064 14.84C9.712 15 9.296 15.08 8.816 15.08ZM8.816 14.048C9.12533 14.048 9.37867 13.9547 9.576 13.768C9.77867 13.576 9.88533 13.272 9.896 12.856C9.90667 12.6213 9.912 12.4027 9.912 12.2C9.912 11.992 9.90667 11.7733 9.896 11.544C9.89067 11.2667 9.84 11.04 9.744 10.864C9.648 10.688 9.52 10.56 9.36 10.48C9.20533 10.3947 9.024 10.352 8.816 10.352C8.608 10.352 8.424 10.3947 8.264 10.48C8.104 10.56 7.976 10.688 7.88 10.864C7.78933 11.04 7.73867 11.2667 7.728 11.544C7.72267 11.7733 7.72 11.992 7.72 12.2C7.72 12.4027 7.72267 12.6213 7.728 12.856C7.744 13.272 7.85067 13.576 8.048 13.768C8.24533 13.9547 8.50133 14.048 8.816 14.048ZM12.417 15C12.3583 15 12.3103 14.9813 12.273 14.944C12.2357 14.9067 12.217 14.8587 12.217 14.8V9.6C12.217 9.54133 12.2357 9.49333 12.273 9.456C12.3103 9.41867 12.3583 9.4 12.417 9.4H14.425C14.9583 9.4 15.4037 9.48533 15.761 9.656C16.1183 9.82133 16.3903 10.0667 16.577 10.392C16.769 10.712 16.8703 11.1093 16.881 11.584C16.8863 11.8187 16.889 12.024 16.889 12.2C16.889 12.376 16.8863 12.5787 16.881 12.808C16.865 13.304 16.7663 13.7147 16.585 14.04C16.4037 14.3653 16.137 14.608 15.785 14.768C15.433 14.9227 14.993 15 14.465 15H12.417ZM13.489 13.968H14.425C14.6917 13.968 14.9103 13.928 15.081 13.848C15.2517 13.768 15.377 13.6427 15.457 13.472C15.5423 13.296 15.5877 13.0693 15.593 12.792C15.5983 12.6373 15.601 12.4987 15.601 12.376C15.6063 12.2533 15.6063 12.1307 15.601 12.008C15.601 11.8853 15.5983 11.7493 15.593 11.6C15.5823 11.2 15.4783 10.9067 15.281 10.72C15.089 10.528 14.7903 10.432 14.385 10.432H13.489V13.968Z" fill="white"/>
</svg>
