<svg width="80" height="80" viewBox="0 0 80 80" fill="none" xmlns="http://www.w3.org/2000/svg">
<path d="M33.3337 51.2634C33.5529 51.4708 33.8382 51.5926 34.1383 51.6083L34.9429 51.3781L57.1283 30.3433C57.566 29.8962 57.566 29.1812 57.1283 28.7341C56.689 28.3137 56.0133 28.2658 55.519 28.6194L34.255 48.8495L24.4849 38.6198H24.4841C24.2845 38.3526 23.9789 38.186 23.6465 38.1625C23.3141 38.1389 22.988 38.2607 22.7523 38.4964C22.5166 38.7322 22.3948 39.0583 22.4183 39.3906C22.4419 39.723 22.6085 40.0287 22.8749 40.229L33.3337 51.2634Z" fill="#62B766"/>
<path d="M40 80C50.6085 80 60.7833 75.786 68.2843 68.2844C75.7854 60.7827 80 50.6079 80 40C80 29.3921 75.786 19.2167 68.2843 11.7156C60.7827 4.21459 50.6079 0 40 0C29.3921 0 19.2167 4.21399 11.7156 11.7156C4.21459 19.2173 0 29.3921 0 40C0 50.6079 4.21399 60.7833 11.7156 68.2844C19.2173 75.7854 29.3921 80 40 80ZM40 2.29598C49.9996 2.29598 59.589 6.26798 66.659 13.339C73.73 20.4091 77.702 29.9986 77.702 39.998C77.702 49.9974 73.73 59.587 66.659 66.657C59.5888 73.728 49.9994 77.7 40 77.7C30.0006 77.7 20.411 73.728 13.341 66.657C6.26999 59.5868 2.29799 49.9974 2.29799 39.998C2.29799 29.9986 6.26999 20.4089 13.341 13.339C20.4112 6.26798 30.0006 2.29598 40 2.29598Z" fill="#62B766"/>
</svg>
