<svg width="24" height="24" viewBox="0 0 24 24" fill="none" xmlns="http://www.w3.org/2000/svg">
<circle cx="12" cy="12" r="12" fill="#E6EDFE"/>
<path d="M9.608 15.08C9.096 15.08 8.66667 15.0053 8.32 14.856C7.97867 14.7067 7.72 14.512 7.544 14.272C7.368 14.032 7.27467 13.776 7.264 13.504C7.264 13.4613 7.28 13.424 7.312 13.392C7.344 13.3547 7.384 13.336 7.432 13.336H8.288C8.35733 13.336 8.41067 13.352 8.448 13.384C8.48533 13.4107 8.52 13.4453 8.552 13.488C8.58933 13.5787 8.648 13.6667 8.728 13.752C8.81333 13.8373 8.928 13.9093 9.072 13.968C9.216 14.0213 9.39467 14.048 9.608 14.048C9.95467 14.048 10.2133 13.992 10.384 13.88C10.56 13.768 10.648 13.616 10.648 13.424C10.648 13.2853 10.6 13.1733 10.504 13.088C10.4133 13.0027 10.2667 12.9253 10.064 12.856C9.86667 12.7867 9.60267 12.712 9.272 12.632C8.872 12.5467 8.53067 12.4373 8.248 12.304C7.97067 12.1653 7.76 11.9893 7.616 11.776C7.47733 11.5573 7.408 11.288 7.408 10.968C7.408 10.648 7.496 10.3653 7.672 10.12C7.848 9.86933 8.096 9.67467 8.416 9.536C8.736 9.392 9.11733 9.32 9.56 9.32C9.91733 9.32 10.232 9.368 10.504 9.464C10.7813 9.56 11.0107 9.68533 11.192 9.84C11.3787 9.99467 11.52 10.16 11.616 10.336C11.712 10.512 11.7627 10.6827 11.768 10.848C11.768 10.8907 11.752 10.9307 11.72 10.968C11.688 11 11.648 11.016 11.6 11.016H10.704C10.6507 11.016 10.6027 11.0053 10.56 10.984C10.5173 10.9627 10.4827 10.9253 10.456 10.872C10.424 10.7333 10.328 10.6133 10.168 10.512C10.0133 10.4053 9.81067 10.352 9.56 10.352C9.29867 10.352 9.09067 10.4 8.936 10.496C8.78667 10.592 8.712 10.7387 8.712 10.936C8.712 11.064 8.74933 11.1733 8.824 11.264C8.904 11.3493 9.03467 11.4267 9.216 11.496C9.40267 11.56 9.648 11.632 9.952 11.712C10.4213 11.808 10.8027 11.9227 11.096 12.056C11.3893 12.1893 11.6053 12.3627 11.744 12.576C11.8827 12.784 11.952 13.048 11.952 13.368C11.952 13.7253 11.8507 14.032 11.648 14.288C11.4507 14.544 11.176 14.7413 10.824 14.88C10.4773 15.0133 10.072 15.08 9.608 15.08ZM13.0108 15C12.9521 15 12.9041 14.9813 12.8668 14.944C12.8294 14.9067 12.8108 14.8587 12.8108 14.8V9.6C12.8108 9.54133 12.8294 9.49333 12.8668 9.456C12.9041 9.41867 12.9521 9.4 13.0108 9.4H13.7388C13.8188 9.4 13.8774 9.41867 13.9148 9.456C13.9521 9.49333 13.9761 9.52267 13.9868 9.544L16.1228 12.88V9.6C16.1228 9.54133 16.1414 9.49333 16.1788 9.456C16.2161 9.41867 16.2614 9.4 16.3148 9.4H17.1308C17.1894 9.4 17.2374 9.41867 17.2748 9.456C17.3121 9.49333 17.3308 9.54133 17.3308 9.6V14.8C17.3308 14.8533 17.3121 14.9013 17.2748 14.944C17.2374 14.9813 17.1894 15 17.1308 15H16.3948C16.3148 15 16.2561 14.9813 16.2188 14.944C16.1868 14.9013 16.1628 14.872 16.1468 14.856L14.0188 11.624V14.8C14.0188 14.8587 14.0001 14.9067 13.9628 14.944C13.9254 14.9813 13.8774 15 13.8188 15H13.0108Z" fill="#2C44DA"/>
</svg>
