<svg width="80" height="80" viewBox="0 0 80 80" fill="none" xmlns="http://www.w3.org/2000/svg">
<path d="M40 80C50.6085 80 60.7833 75.786 68.2843 68.2844C75.7854 60.7827 80 50.6079 80 40C80 29.3921 75.786 19.2167 68.2843 11.7156C60.7827 4.21459 50.6079 0 40 0C29.3921 0 19.2167 4.21399 11.7156 11.7156C4.21459 19.2173 0 29.3921 0 40C0 50.6079 4.21399 60.7833 11.7156 68.2844C19.2173 75.7854 29.3921 80 40 80ZM40 2.29598C49.9996 2.29598 59.589 6.26798 66.659 13.339C73.73 20.4091 77.702 29.9986 77.702 39.998C77.702 49.9974 73.73 59.587 66.659 66.657C59.5888 73.728 49.9994 77.7 40 77.7C30.0006 77.7 20.411 73.728 13.341 66.657C6.26999 59.5868 2.29799 49.9974 2.29799 39.998C2.29799 29.9986 6.26999 20.4089 13.341 13.339C20.4112 6.26798 30.0006 2.29598 40 2.29598Z" fill="#FFAF38"/>
<path d="M39 24.5C39 23.6716 39.6716 23 40.5 23C41.3284 23 42 23.6716 42 24.5V49.5C42 50.3284 41.3284 51 40.5 51C39.6716 51 39 50.3284 39 49.5V24.5Z" fill="#FFB038"/>
<path d="M39 55.5C39 54.6716 39.6716 54 40.5 54C41.3284 54 42 54.6716 42 55.5C42 56.3284 41.3284 57 40.5 57C39.6716 57 39 56.3284 39 55.5Z" fill="#FFB038"/>
</svg>
